-
http:// www. Speed. Cd       
http:// www. Speed. Cd       the fast  and The Hottest Private Tracker on the net

Please Seed back to make the speed Faster!!!

and don't forget to visit      ...... www. Speed. Cd..........
-                                             
                               
                                 
                                      
                                      
                                       
    CoaX!<CPH>                         
                               
                         
                            
          
    Team FiCO <Final Coalition> 2k8 Presents:    
    

Unsolved.Mysteries.Miracles.2004.Part2.DVDRip.XviD-FiCO 
http://www.amazon.com/Unsolved-Mysteries-Miracles-Robert-Stack/dp/B0002DRE0Y
Subtitles: None
Date: 2011.04

Genre: Docu Mystery
Plot: This volume collects some of the more hopeful, mysterious and moving 
cases explored by the police and other investigators with the help of the 
crackerjack Unsolved Mysteries team, including Virgin Mary sightings and 
incredible tales of survival. The Miracles series examines strange 
happenings that can't be easily explained by facts and logic -- and, 
particularly, that require a massive dose of religious faith.

Stats:
General
Format                           : AVI
Format/Info                      : Audio Video Interleave
File size                        : 1.36 GiB
Duration                         : 1h 32mn
Overall bit rate                 : 2 102 Kbps
Writing application              : VirtualDubMod 1.5.10.2 (build 2542/release)
Writing library                  : VirtualDubMod build 2542/release

Video
ID                               : 0
Format                           : MPEG-4 Visual
Format profile                   : Advanced Simple@L5
Format settings, BVOP            : Yes
Format settings, QPel            : No
Format settings, GMC             : No warppoints
Format settings, Matrix          : Default (H.263)
Codec ID                         : XVID
Codec ID/Hint                    : XviD
Duration                         : 1h 32mn
Bit rate                         : 1 706 Kbps
Width                            : 640 pixels
Height                           : 480 pixels
Display aspect ratio             : 4:3
Frame rate                       : 29.970 fps
Resolution                       : 8 bits
Colorimetry                      : 4:2:0
Scan type                        : Progressive
Bits/(Pixel*Frame)               : 0.185
Stream size                      : 1.10 GiB (81%)
Writing library                  : XviD 61

Audio
ID                               : 1
Format                           : AC-3
Format/Info                      : Audio Coding 3
Format_Settings_ModeExtension    : CM (complete main)
Codec ID                         : 2000
Duration                         : 1h 32mn
Bit rate mode                    : Constant
Bit rate                         : 384 Kbps
Channel(s)                       : 6 channels
Channel positions                : Front: L C R, Side: L R, LFE
Sampling rate                    : 48.0 KHz
Stream size                      : 254 MiB (18%)
Alignment                        : Split accross interleaves
Interleave, duration             : 33 ms (1.00 video frame)
Interleave, preload duration     : 500 ms






Release notes:
enjoy!


                                                                     
                                                             
                                                               
                                                               
                       
      
              Greetz from Team FiCO:               
              
                                                             
                                                             
           BLooDWeiSeR,CULTXviD,SiCK,DoNE,LAP,TH30R1STS              
                                                                             
               WinBeta, DvF, WASTE, BERC, KALEVALA, Jiggly                   
                                                                             
                                                             
                                       
                             
                      
                  
           
            
                    
                  
                
                            
                                        
                                        
                                            
                                                    
                                                              
                      you know where to find us...                     
                        
   NFO By: CoaXCable/CoolPHat <#CPH>